<?xml version="1.0" encoding="UTF-8"?>
<svg width="24px" height="24px" viewBox="0 0 24 24" version="1.1" xmlns="http://www.w3.org/2000/svg" xmlns:xlink="http://www.w3.org/1999/xlink">
    <!-- Generator: Sketch 46.2 (44496) - http://www.bohemiancoding.com/sketch -->
    <title>plus-sign copy 5</title>
    <desc>Created with Sketch.</desc>
    <defs></defs>
    <g id="HiFi-Cinnabon" stroke="none" stroke-width="1" fill="none" fill-rule="evenodd">
        <g id="Shop" transform="translate(-598.000000, -1640.000000)" fill-rule="nonzero">
            <g id="Birthday" transform="translate(597.000000, 1364.000000)">
                <g id="Add" transform="translate(1.000000, 268.000000)">
                    <g id="plus-sign-copy-5" transform="translate(0.000000, 8.000000)">
                        <path d="M19.3323958,2.54260417 C23.059416,7.30331943 22.6472595,14.0968105 18.372035,18.372035 C14.0968105,22.6472595 7.30331943,23.059416 2.54260417,19.3323958 C5.38464079,22.9917643 10.0838606,24.6814517 14.605444,23.6698028 C19.1270273,22.6581539 22.6581539,19.1270273 23.6698028,14.605444 C24.6814517,10.0838606 22.9917643,5.38464079 19.3323958,2.54260417 Z" id="Shape" fill-opacity="0.227779665" fill="#D16D6A"></path>
                        <path d="M11.9791667,23.9583333 C5.3632556,23.9583333 9.25185854e-16,18.5950777 0,11.9791667 C-8.09537622e-16,5.3632556 5.3632556,1.15648232e-15 11.9791667,0 C18.5950777,-1.15648232e-15 23.9583333,5.3632556 23.9583333,11.9791667 C23.9509279,18.5920079 18.5920079,23.9509279 11.9791667,23.9583333 Z" id="Shape" fill="#D16D6A"></path>
                        <path d="M16.1458333,11.4583333 L12.5,11.4583333 L12.5,7.8125 C12.5,7.52485169 12.266815,7.29166667 11.9791667,7.29166667 C11.6915184,7.29166667 11.4583333,7.52485169 11.4583333,7.8125 L11.4583333,11.4583333 L7.8125,11.4583333 C7.52485169,11.4583333 7.29166667,11.6915184 7.29166667,11.9791667 C7.29166667,12.266815 7.52485169,12.5 7.8125,12.5 L11.4583333,12.5 L11.4583333,16.1458333 C11.4583333,16.4334816 11.6915184,16.6666667 11.9791667,16.6666667 C12.266815,16.6666667 12.5,16.4334816 12.5,16.1458333 L12.5,12.5 L16.1458333,12.5 C16.4334816,12.5 16.6666667,12.266815 16.6666667,11.9791667 C16.6666667,11.6915184 16.4334816,11.4583333 16.1458333,11.4583333 Z" id="Shape" fill="#FFFFFF"></path>
                    </g>
                </g>
            </g>
        </g>
    </g>
</svg>