<?xml version="1.0" encoding="UTF-8"?>
<svg width="25px" height="25px" viewBox="0 0 25 25" version="1.1" xmlns="http://www.w3.org/2000/svg" xmlns:xlink="http://www.w3.org/1999/xlink">
    <!-- Generator: Sketch 46.2 (44496) - http://www.bohemiancoding.com/sketch -->
    <title>plus-sign copy 4</title>
    <desc>Created with Sketch.</desc>
    <defs></defs>
    <g id="HiFi-Cinnabon" stroke="none" stroke-width="1" fill="none" fill-rule="evenodd">
        <g id="Shop" transform="translate(-1093.000000, -1639.000000)" fill-rule="nonzero" fill="#D16D6A">
            <g id="Black" transform="translate(1093.000000, 1357.000000)">
                <g id="Add" transform="translate(0.000000, 275.000000)">
                    <g id="plus-sign-copy-4" transform="translate(0.000000, 7.000000)">
                        <path d="M19.5591,3.4409 C23.1370394,8.01118666 22.7413691,14.5329381 18.6371536,18.6371536 C14.5329381,22.7413691 8.01118666,23.1370394 3.4409,19.5591 C6.16925516,23.0720937 10.6805062,24.6941936 15.0212262,23.7230107 C19.3619462,22.7518278 22.7518278,19.3619462 23.7230107,15.0212262 C24.6941936,10.6805062 23.0720937,6.16925516 19.5591,3.4409 Z" id="Shape" fill-opacity="0.227779665"></path>
                        <path d="M16.5,12 L13,12 L13,8.5 C13,8.22385763 12.7761424,8 12.5,8 C12.2238576,8 12,8.22385763 12,8.5 L12,12 L8.5,12 C8.22385763,12 8,12.2238576 8,12.5 C8,12.7761424 8.22385763,13 8.5,13 L12,13 L12,16.5 C12,16.7761424 12.2238576,17 12.5,17 C12.7761424,17 13,16.7761424 13,16.5 L13,13 L16.5,13 C16.7761424,13 17,12.7761424 17,12.5 C17,12.2238576 16.7761424,12 16.5,12 Z" id="Shape"></path>
                        <path d="M12.5,0 C5.59644063,-4.22721094e-16 8.45442189e-16,5.59644063 0,12.5 C-8.45442189e-16,19.4035594 5.59644063,25 12.5,25 C19.4035594,25 25,19.4035594 25,12.5 C25,9.18479388 23.6830395,6.00536997 21.3388348,3.66116524 C18.99463,1.3169605 15.8152061,2.02997828e-16 12.5,0 Z M12.5,24 C6.14872538,24 1,18.8512746 1,12.5 C1,6.14872538 6.14872538,1 12.5,1 C18.8512746,1 24,6.14872538 24,12.5 C23.9928908,18.8483276 18.8483276,23.9928908 12.5,24 Z" id="Shape"></path>
                    </g>
                </g>
            </g>
        </g>
    </g>
</svg>